<svg width="364" height="100" viewBox="0 0 364 100" fill="none" xmlns="http://www.w3.org/2000/svg">
<rect width="100" height="100" rx="50" fill="#FFC53A"/>
<path d="M37.44 71V28.4H56.28C58.24 28.4 60.04 28.82 61.68 29.66C63.36 30.46 64.8 31.54 66 32.9C67.2 34.22 68.14 35.74 68.82 37.46C69.5 39.14 69.84 40.84 69.84 42.56C69.84 45.32 69.14 47.84 67.74 50.12C66.38 52.36 64.52 53.98 62.16 54.98L71.88 71H62.58L53.88 56.72H45.72V71H37.44ZM45.72 49.46H56.1C56.86 49.46 57.56 49.28 58.2 48.92C58.88 48.56 59.46 48.08 59.94 47.48C60.42 46.84 60.8 46.1 61.08 45.26C61.36 44.42 61.5 43.52 61.5 42.56C61.5 41.56 61.34 40.64 61.02 39.8C60.7 38.96 60.26 38.24 59.7 37.64C59.18 37 58.56 36.52 57.84 36.2C57.16 35.84 56.46 35.66 55.74 35.66H45.72V49.46Z" fill="white"/>
<path d="M91.0823 71.6C88.5223 71.6 86.2223 71.16 84.1823 70.28C82.1423 69.4 80.4023 68.22 78.9623 66.74C77.5623 65.22 76.4823 63.48 75.7223 61.52C74.9623 59.56 74.5823 57.5 74.5823 55.34C74.5823 53.14 74.9623 51.06 75.7223 49.1C76.4823 47.14 77.5623 45.42 78.9623 43.94C80.4023 42.42 82.1423 41.22 84.1823 40.34C86.2223 39.46 88.5223 39.02 91.0823 39.02C93.6423 39.02 95.9223 39.46 97.9223 40.34C99.9623 41.22 101.682 42.42 103.082 43.94C104.522 45.42 105.622 47.14 106.382 49.1C107.142 51.06 107.522 53.14 107.522 55.34C107.522 57.5 107.142 59.56 106.382 61.52C105.622 63.48 104.542 65.22 103.142 66.74C101.742 68.22 100.022 69.4 97.9823 70.28C95.9423 71.16 93.6423 71.6 91.0823 71.6ZM82.8623 55.34C82.8623 56.74 83.0623 58.02 83.4623 59.18C83.9023 60.3 84.4823 61.28 85.2023 62.12C85.9623 62.96 86.8423 63.62 87.8423 64.1C88.8423 64.54 89.9223 64.76 91.0823 64.76C92.2423 64.76 93.3223 64.54 94.3223 64.1C95.3223 63.62 96.1823 62.96 96.9023 62.12C97.6623 61.28 98.2423 60.28 98.6423 59.12C99.0823 57.96 99.3023 56.68 99.3023 55.28C99.3023 53.92 99.0823 52.66 98.6423 51.5C98.2423 50.34 97.6623 49.34 96.9023 48.5C96.1823 47.66 95.3223 47.02 94.3223 46.58C93.3223 46.1 92.2423 45.86 91.0823 45.86C89.9223 45.86 88.8423 46.1 87.8423 46.58C86.8423 47.06 85.9623 47.72 85.2023 48.56C84.4823 49.4 83.9023 50.4 83.4623 51.56C83.0623 52.72 82.8623 53.98 82.8623 55.34ZM112.889 27.2H120.929V60.92C120.929 62.08 121.209 62.98 121.769 63.62C122.329 64.26 123.129 64.58 124.169 64.58C124.649 64.58 125.169 64.5 125.729 64.34C126.329 64.18 126.889 63.98 127.409 63.74L128.489 69.86C127.409 70.38 126.149 70.78 124.709 71.06C123.269 71.34 121.969 71.48 120.809 71.48C118.289 71.48 116.329 70.82 114.929 69.5C113.569 68.14 112.889 66.22 112.889 63.74V27.2ZM146.572 71.6C144.052 71.6 141.772 71.18 139.732 70.34C137.692 69.46 135.952 68.28 134.512 66.8C133.072 65.32 131.952 63.6 131.152 61.64C130.392 59.68 130.012 57.62 130.012 55.46C130.012 53.22 130.392 51.12 131.152 49.16C131.912 47.16 133.012 45.42 134.452 43.94C135.892 42.42 137.632 41.22 139.672 40.34C141.752 39.46 144.072 39.02 146.632 39.02C149.192 39.02 151.472 39.46 153.472 40.34C155.512 41.22 157.232 42.4 158.632 43.88C160.072 45.36 161.152 47.08 161.872 49.04C162.632 51 163.012 53.04 163.012 55.16C163.012 55.68 162.992 56.18 162.952 56.66C162.952 57.14 162.912 57.54 162.832 57.86H138.532C138.652 59.1 138.952 60.2 139.432 61.16C139.912 62.12 140.532 62.94 141.292 63.62C142.052 64.3 142.912 64.82 143.872 65.18C144.832 65.54 145.832 65.72 146.872 65.72C148.472 65.72 149.972 65.34 151.372 64.58C152.812 63.78 153.792 62.74 154.312 61.46L161.212 63.38C160.052 65.78 158.192 67.76 155.632 69.32C153.112 70.84 150.092 71.6 146.572 71.6ZM154.732 52.64C154.532 50.28 153.652 48.4 152.092 47C150.572 45.56 148.712 44.84 146.512 44.84C145.432 44.84 144.412 45.04 143.452 45.44C142.532 45.8 141.712 46.32 140.992 47C140.272 47.68 139.672 48.5 139.192 49.46C138.752 50.42 138.492 51.48 138.412 52.64H154.732ZM176.49 71.6C174.97 71.6 173.55 71.36 172.23 70.88C170.91 70.36 169.77 69.66 168.81 68.78C167.85 67.86 167.09 66.8 166.53 65.6C166.01 64.4 165.75 63.08 165.75 61.64C165.75 60.16 166.07 58.8 166.71 57.56C167.39 56.28 168.31 55.2 169.47 54.32C170.67 53.44 172.09 52.76 173.73 52.28C175.37 51.76 177.17 51.5 179.13 51.5C180.53 51.5 181.89 51.62 183.21 51.86C184.57 52.1 185.77 52.44 186.81 52.88V51.08C186.81 49 186.21 47.4 185.01 46.28C183.85 45.16 182.11 44.6 179.79 44.6C178.11 44.6 176.47 44.9 174.87 45.5C173.27 46.1 171.63 46.98 169.95 48.14L167.49 43.04C171.53 40.36 175.89 39.02 180.57 39.02C185.09 39.02 188.59 40.14 191.07 42.38C193.59 44.58 194.85 47.78 194.85 51.98V61.76C194.85 62.6 194.99 63.2 195.27 63.56C195.59 63.92 196.09 64.12 196.77 64.16V71C195.41 71.28 194.23 71.42 193.23 71.42C191.71 71.42 190.53 71.08 189.69 70.4C188.89 69.72 188.39 68.82 188.19 67.7L188.01 65.96C186.61 67.8 184.91 69.2 182.91 70.16C180.91 71.12 178.77 71.6 176.49 71.6ZM178.77 65.72C180.13 65.72 181.41 65.48 182.61 65C183.85 64.52 184.81 63.88 185.49 63.08C186.37 62.4 186.81 61.64 186.81 60.8V57.2C185.85 56.84 184.81 56.56 183.69 56.36C182.57 56.12 181.49 56 180.45 56C178.37 56 176.67 56.48 175.35 57.44C174.03 58.36 173.37 59.54 173.37 60.98C173.37 62.34 173.89 63.48 174.93 64.4C175.97 65.28 177.25 65.72 178.77 65.72ZM231.583 71H223.543V53.36C223.543 50.84 223.103 49 222.223 47.84C221.343 46.68 220.123 46.1 218.563 46.1C217.763 46.1 216.943 46.26 216.103 46.58C215.263 46.9 214.463 47.36 213.703 47.96C212.983 48.52 212.323 49.2 211.723 50C211.123 50.8 210.683 51.68 210.403 52.64V71H202.363V39.56H209.623V45.38C210.783 43.38 212.463 41.82 214.663 40.7C216.863 39.58 219.343 39.02 222.103 39.02C224.063 39.02 225.663 39.38 226.903 40.1C228.143 40.82 229.103 41.76 229.783 42.92C230.463 44.08 230.923 45.4 231.163 46.88C231.443 48.36 231.583 49.86 231.583 51.38V71ZM251.594 71.6C249.434 71.6 247.434 71.18 245.594 70.34C243.754 69.5 242.174 68.34 240.854 66.86C239.534 65.38 238.494 63.66 237.734 61.7C237.014 59.7 236.654 57.56 236.654 55.28C236.654 53 236.994 50.88 237.674 48.92C238.394 46.96 239.374 45.24 240.614 43.76C241.854 42.28 243.334 41.12 245.054 40.28C246.774 39.44 248.654 39.02 250.694 39.02C253.014 39.02 255.094 39.58 256.934 40.7C258.814 41.82 260.274 43.28 261.314 45.08V27.2H269.354V61.76C269.354 62.6 269.494 63.2 269.774 63.56C270.054 63.92 270.534 64.12 271.214 64.16V71C269.814 71.28 268.674 71.42 267.794 71.42C266.354 71.42 265.174 71.06 264.254 70.34C263.334 69.62 262.814 68.68 262.694 67.52L262.514 65.54C261.354 67.54 259.774 69.06 257.774 70.1C255.814 71.1 253.754 71.6 251.594 71.6ZM253.694 64.76C254.454 64.76 255.234 64.64 256.034 64.4C256.834 64.12 257.574 63.74 258.254 63.26C258.934 62.78 259.534 62.22 260.054 61.58C260.614 60.94 261.034 60.24 261.314 59.48V51.98C260.994 51.1 260.534 50.3 259.934 49.58C259.374 48.82 258.714 48.18 257.954 47.66C257.234 47.1 256.454 46.66 255.614 46.34C254.814 46.02 254.014 45.86 253.214 45.86C252.014 45.86 250.894 46.12 249.854 46.64C248.854 47.16 247.994 47.88 247.274 48.8C246.554 49.68 245.994 50.7 245.594 51.86C245.194 53.02 244.994 54.22 244.994 55.46C244.994 56.78 245.214 58 245.654 59.12C246.094 60.24 246.694 61.22 247.454 62.06C248.214 62.9 249.114 63.56 250.154 64.04C251.234 64.52 252.414 64.76 253.694 64.76ZM277.246 71V39.56H285.286V71H277.246ZM277.246 35.18V27.2H285.286V35.18H277.246ZM321.759 71H313.719V53.36C313.719 50.84 313.279 49 312.399 47.84C311.519 46.68 310.299 46.1 308.739 46.1C307.939 46.1 307.119 46.26 306.279 46.58C305.439 46.9 304.639 47.36 303.879 47.96C303.159 48.52 302.499 49.2 301.899 50C301.299 50.8 300.859 51.68 300.579 52.64V71H292.539V39.56H299.799V45.38C300.959 43.38 302.639 41.82 304.839 40.7C307.039 39.58 309.519 39.02 312.279 39.02C314.239 39.02 315.839 39.38 317.079 40.1C318.319 40.82 319.279 41.76 319.959 42.92C320.639 44.08 321.099 45.4 321.339 46.88C321.619 48.36 321.759 49.86 321.759 51.38V71ZM341.05 71.18C338.93 71.18 337.01 70.76 335.29 69.92C333.57 69.08 332.07 67.94 330.79 66.5C329.55 65.02 328.59 63.32 327.91 61.4C327.23 59.48 326.89 57.44 326.89 55.28C326.89 53 327.25 50.88 327.97 48.92C328.69 46.96 329.69 45.24 330.97 43.76C332.25 42.28 333.79 41.12 335.59 40.28C337.39 39.44 339.37 39.02 341.53 39.02C343.97 39.02 346.11 39.58 347.95 40.7C349.79 41.78 351.31 43.24 352.51 45.08V39.56H359.53V69.5C359.53 71.82 359.09 73.9 358.21 75.74C357.33 77.58 356.11 79.14 354.55 80.42C353.03 81.7 351.19 82.68 349.03 83.36C346.91 84.04 344.59 84.38 342.07 84.38C338.63 84.38 335.73 83.8 333.37 82.64C331.05 81.52 329.05 79.92 327.37 77.84L331.75 73.58C332.95 75.06 334.45 76.22 336.25 77.06C338.09 77.9 340.03 78.32 342.07 78.32C343.31 78.32 344.49 78.14 345.61 77.78C346.77 77.46 347.79 76.94 348.67 76.22C349.55 75.5 350.23 74.58 350.71 73.46C351.23 72.34 351.49 71.02 351.49 69.5V65.54C350.45 67.34 348.99 68.74 347.11 69.74C345.23 70.7 343.21 71.18 341.05 71.18ZM343.75 64.76C344.63 64.76 345.47 64.62 346.27 64.34C347.07 64.06 347.81 63.68 348.49 63.2C349.17 62.72 349.77 62.16 350.29 61.52C350.81 60.88 351.21 60.2 351.49 59.48V51.98C350.77 50.14 349.63 48.66 348.07 47.54C346.55 46.42 344.95 45.86 343.27 45.86C342.03 45.86 340.91 46.14 339.91 46.7C338.91 47.22 338.05 47.94 337.33 48.86C336.61 49.74 336.05 50.76 335.65 51.92C335.29 53.08 335.11 54.28 335.11 55.52C335.11 56.8 335.33 58 335.77 59.12C336.21 60.24 336.81 61.22 337.57 62.06C338.37 62.9 339.29 63.56 340.33 64.04C341.37 64.52 342.51 64.76 343.75 64.76Z" fill="#161032"/>
</svg>
